

<svg xmlns="http://www.w3.org/2000/svg" width="60" height="60" viewBox="0 0 60 60" fill="none">
  <ellipse cx="29.9999" cy="30" rx="29.9999" ry="30" fill="#DDE1E8"/>
  <svg xmlns="http://www.w3.org/2000/svg" width="36" height="36" viewBox="0 0 36 36" fill="none"  x="12" y="12">
  <path d="M6.2847 36L11.491 26.9841L16.6973 18L21.8719 8.98413L22.7291 7.55555L23.11 8.98413L24.6973 14.9206L22.9195 18L17.7132 26.9841L12.5386 36H18.7608L23.9672 26.9841L26.6656 22.3175L27.9354 26.9841L30.3481 36H35.9354L33.5227 26.9841L31.11 18L30.4751 15.6825L34.3481 8.98413H28.6973L28.5068 8.31746L26.5386 0.952381L26.2846 0H20.8561L20.7291 0.190476L15.6497 8.98413L10.4434 18L5.26883 26.9841L0.0625 36H6.2847Z" fill="black"/>
</svg>
</svg>