<svg xmlns="http://www.w3.org/2000/svg" width="34" height="34" viewBox="0 0 34 34" fill="none">
  <path class="fill-white" fill-rule="evenodd" clip-rule="evenodd" d="M17 0.333344C26.2083 0.333344 33.6667 7.79168 33.6667 17V31.5833C33.6667 32.7361 32.7361 33.6667 31.5833 33.6667C30.4306 33.6667 29.5 32.7361 29.5 31.5833V28.0278C26.4444 31.4861 21.9722 33.6667 17 33.6667C7.79167 33.6667 0.333334 26.2083 0.333334 17C0.333334 7.79168 7.79167 0.333344 17 0.333344ZM17 4.50001C23.9028 4.50001 29.5 10.0972 29.5 17C29.5 23.9028 23.9028 29.5 17 29.5C10.0972 29.5 4.5 23.9028 4.5 17C4.5 10.0972 10.0972 4.50001 17 4.50001Z" fill="#7D8FA9"/>
</svg>