<svg xmlns="http://www.w3.org/2000/svg" width="60" height="60" viewBox="0 0 60 60" fill="none">
 <circle cx="30" cy="30" r="28" fill="white" />
  <path fill-rule="evenodd" clip-rule="evenodd" d="M59.9997 30C59.9997 46.5687 46.5685 60 29.9999 60C13.4314 60 0 46.5687 0 30C0 13.4315 13.4314 0 29.9999 0C46.5685 0 59.9997 13.4315 59.9997 30ZM21.4988 41.9385H15.6766C14.4532 41.9385 13.8489 41.9385 13.4804 41.7028C13.0825 41.4447 12.8393 41.0173 12.8098 40.5455C12.7877 40.1109 13.0899 39.5801 13.6942 38.5188L28.0697 13.1798C28.6814 12.1038 28.9909 11.5658 29.3815 11.3668C29.8016 11.1531 30.3028 11.1531 30.7229 11.3668C31.1135 11.5658 31.423 12.1038 32.0347 13.1798L34.99 18.3387L35.0051 18.365C35.6657 19.5194 36.0008 20.1048 36.147 20.7191C36.3092 21.3898 36.3092 22.0973 36.147 22.768C35.9996 23.387 35.668 23.9766 34.9973 25.1484L27.4462 38.4968L27.4267 38.5309C26.7616 39.6948 26.4246 40.2847 25.9575 40.7297C25.449 41.2162 24.8373 41.5698 24.1666 41.7691C23.5549 41.9385 22.8696 41.9385 21.4988 41.9385ZM36.2016 41.9385H44.544C45.7748 41.9385 46.3939 41.9385 46.7626 41.6956C47.1605 41.4376 47.411 41.0025 47.4333 40.5312C47.4545 40.1105 47.1589 39.6004 46.5797 38.6008C46.5597 38.5668 46.5397 38.5321 46.5194 38.4969L42.3406 31.3482L42.293 31.2677C41.7058 30.2747 41.4094 29.7733 41.0287 29.5794C40.6089 29.3657 40.1147 29.3657 39.6949 29.5794C39.3116 29.7784 39.0021 30.3017 38.3904 31.3556L34.2265 38.5043L34.2122 38.5289C33.6026 39.5811 33.298 40.1069 33.32 40.5383C33.3495 41.0101 33.5927 41.4447 33.9906 41.7028C34.3518 41.9385 34.9708 41.9385 36.2016 41.9385Z" fill="#E84142"/>
</svg>