<svg xmlns="http://www.w3.org/2000/svg" width="34" height="34" viewBox="0 0 34 34" fill="none">
  <path d="M8.10939 5.47201L16.9987 0.333344L25.8881 5.47201L22.5547 7.27734L16.9987 4.08268L11.3041 7.27734L8.10939 5.47201ZM25.7481 11.8613L22.5534 10.056L16.9987 13.2507L11.3041 10.056L8.10939 11.8613V15.612L13.6654 18.8067V25.3347L16.8601 27.2787L20.0547 25.3347V18.9453L25.6107 15.7507V11.8613H25.7481ZM25.7481 22.1387V18.3893L22.5547 20.3333V23.944L25.7481 22.1387ZM28.1094 23.3893L22.5534 26.584V30.3333L31.4427 25.1947V14.9173L28.1094 17V23.3893ZM24.9161 8.66668L28.1107 10.6107V14.3613L31.3054 12.4173V8.66668L28.1107 6.72268L24.9161 8.66668ZM13.6654 27.972V31.7213L16.8601 33.6653L20.0547 31.7213V27.972L16.8601 29.916L13.6654 27.972ZM8.10939 22.1387L11.3041 23.944V20.1947L8.10939 18.2507V22.1387ZM13.6654 8.66668L16.8601 10.6107L20.1934 8.66668L16.9987 6.72268L13.6654 8.66668ZM5.74805 10.6107L9.08139 8.66668L5.74805 6.72268L2.55472 8.66668V12.416L5.74939 14.36V10.6107H5.74805ZM5.74805 17L2.55339 15.056V25.3333L11.4427 30.472V26.7227L5.88672 23.528V17H5.74805Z" fill="#F0B90B"/>
</svg>