<svg xmlns="http://www.w3.org/2000/svg" width="60" height="60" viewBox="0 0 60 60" fill="none">
  <ellipse cx="29.9999" cy="30" rx="29.9999" ry="30" fill="#F3BA2F"/>
  <svg xmlns="http://www.w3.org/2000/svg" width="46" height="46" viewBox="0 0 46 46" fill="none" x="7" y="7">
    <path d="M14.2606 19.4094L22.9996 10.6707L31.7431 19.4139L36.8281 14.3289L22.9996 0.5L9.17585 14.3244L14.2606 19.4094ZM0.5 22.9993L5.58515 17.9141L10.67 22.9989L5.58485 28.084L0.5 22.9993ZM14.2606 26.5905L22.9996 35.3293L31.7429 26.5862L36.8305 31.6685L36.8281 31.6712L22.9996 45.4999L9.1754 31.6759L9.1682 31.6687L14.2606 26.5905ZM35.3301 23.002L40.4152 17.9169L45.5 23.0017L40.4149 28.0869L35.3301 23.002Z" fill="white"/>
    <path d="M28.1579 22.9978H28.1602L23.0003 17.8379L19.187 21.6512H19.1868L18.7487 22.0895L17.8451 22.9933L17.8379 23.0003L17.8451 23.0077L23.0003 28.1631L28.1602 23.0032L28.1627 23.0003L28.1579 22.9978Z" fill="white"/>
  </svg>
</svg>
