<svg
          xmlns="http://www.w3.org/2000/svg"
          width="60"
          height="60"
          viewBox="0 0 60 60"
          fill="none"
        >
          <path
            d="M59.1011 37.2601C55.0966 53.3303 38.8152 63.1111 22.7402 59.1006C6.66516 55.0901 -3.11119 38.8168 0.899612 22.7451C4.91041 6.67343 21.1837 -3.11192 37.2551 0.899182C53.3265 4.91028 63.1119 21.1845 59.1011 37.2601Z"
            fill="#F7931A"
          />
          <path
            d="M43.2305 25.725C43.8269 21.7328 40.7873 19.5866 36.6304 18.155L37.9804 12.7473L34.6875 11.9271L33.3723 17.1925C32.5077 16.9771 31.619 16.7725 30.7358 16.5721L32.0558 11.2719L28.7663 10.4517L27.4201 15.8572L20.7804 14.2126L19.9043 17.7289C19.9043 17.7289 22.347 18.2888 22.2954 18.3236C23.6286 18.6566 23.8704 19.5386 23.8296 20.2382L20.1353 35.0526C19.9721 35.4576 19.5587 36.0648 18.6269 35.8326C18.6599 35.8806 16.2341 35.2326 16.2341 35.2326L14.5996 39.0064L21.2298 40.6804L19.8671 46.1511L23.1552 46.9713L24.5053 41.5594C25.4053 41.803 26.2753 42.0281 27.1279 42.2399L25.7833 47.6265L29.0756 48.4467L30.4382 42.9866C36.0522 44.0486 40.274 43.6202 42.0485 38.5465C43.4801 34.4589 41.9783 32.1008 39.0244 30.5624C41.1755 30.0644 42.7955 28.6501 43.2278 25.7271L43.2305 25.725ZM35.7063 36.273C34.6863 40.3606 27.8056 38.1517 25.573 37.5966L27.3808 30.35C29.6123 30.9068 36.7678 32.0096 35.7075 36.2724L35.7063 36.273ZM36.7276 25.6671C35.7993 29.3872 30.0701 27.4972 28.2106 27.0334L29.8475 20.459C31.7075 20.9234 37.693 21.788 36.7252 25.6668"
            fill="white"
          />
        </svg>