<svg xmlns="http://www.w3.org/2000/svg" width="30" height="34" viewBox="0 0 30 34" fill="none">
  <path d="M28.1918 8.31922L28.9752 6.39858C28.9752 6.39858 27.9896 5.33717 26.7766 4.12412C25.5636 2.91108 23.0111 3.61869 23.0111 3.61869L20.1049 0.333374H15H9.86985L6.96361 3.64396C6.96361 3.64396 4.41117 2.93636 3.19813 4.1494C1.98509 5.36244 0.999495 6.42385 0.999495 6.42385L1.78292 8.34449L0.797321 11.1749C0.797321 11.1749 3.72883 22.2439 4.05737 23.6086C4.7397 26.2621 5.19459 27.2982 7.11524 28.6629C9.03589 30.0276 12.4981 32.3526 13.0794 32.7064C13.6353 33.0602 14.3682 33.6667 15 33.6667C15.6318 33.6667 16.3394 33.0602 16.9206 32.7064C17.4766 32.3526 20.9641 30.0023 22.8848 28.6629C24.8054 27.3235 25.2603 26.2874 25.9426 23.6086C26.2964 22.2439 29.2027 11.1749 29.2027 11.1749L28.1918 8.31922Z" fill="url(#paint0_linear_3803_15243)"/>
  <path d="M22.2041 5.74137C22.2041 5.74137 25.9443 10.265 25.9443 11.2506C25.9443 12.2362 25.4641 12.4636 24.984 12.9691C24.5038 13.4745 22.4315 15.6731 22.1788 15.9511C21.9008 16.2291 21.3701 16.6587 21.6734 17.4422C22.0019 18.2003 22.4821 19.1859 21.9514 20.1968C21.4207 21.1824 20.5109 21.8647 19.9296 21.7383C19.3484 21.6373 17.9585 20.9044 17.453 20.5758C16.9476 20.2473 15.3555 18.9332 15.3555 18.4277C15.3555 17.9223 17.0234 17.0125 17.3267 16.8104C17.6299 16.6082 19.0199 15.7995 19.0451 15.4962C19.0704 15.193 19.0704 15.0919 18.6408 14.3085C18.2364 13.525 17.4783 12.4889 17.6047 11.8066C17.731 11.1242 18.9188 10.7704 19.778 10.4419C20.6373 10.1134 22.2799 9.50685 22.4821 9.40576C22.6843 9.30468 22.6337 9.22886 22.0019 9.15305C21.3701 9.1025 19.6264 8.84979 18.8177 9.07723C18.009 9.30468 16.6696 9.63321 16.5432 9.81011C16.4422 9.98701 16.3411 9.98701 16.4422 10.6188C16.5432 11.2253 17.1498 14.2074 17.2003 14.7381C17.2509 15.2688 17.3772 15.6226 16.796 15.749C16.24 15.8753 15.2797 16.1028 14.9511 16.1028C14.6226 16.1028 13.6623 15.8753 13.1063 15.749C12.5503 15.6226 12.6514 15.2688 12.702 14.7381C12.7525 14.2074 13.3337 11.2506 13.4601 10.6188C13.5612 10.0123 13.4854 9.98701 13.359 9.81011C13.2579 9.63321 11.8933 9.30468 11.0846 9.07723C10.2759 8.84979 8.53213 9.07723 7.90033 9.15305C7.26854 9.20359 7.218 9.30468 7.42017 9.40576C7.62235 9.50685 9.265 10.1134 10.1242 10.4419C10.9835 10.7704 12.1712 11.1242 12.2976 11.8066C12.424 12.4889 11.6911 13.525 11.2615 14.3085C10.8571 15.0919 10.8318 15.1677 10.8571 15.4962C10.8824 15.7995 12.2723 16.6082 12.5756 16.8104C12.8789 17.0125 14.5468 17.9223 14.5468 18.4277C14.5468 18.9332 12.9547 20.2473 12.4492 20.5758C11.9438 20.9044 10.5791 21.612 9.97261 21.7383C9.39136 21.8394 8.48158 21.1824 7.95088 20.1968C7.42017 19.2112 7.90033 18.2256 8.22887 17.4422C8.5574 16.684 8.00142 16.2544 7.72343 15.9511C7.52126 15.6479 5.47425 13.4492 4.99409 12.9691C4.51393 12.4636 4.05904 12.2109 4.05904 11.2506C4.05904 10.2903 7.79925 5.74137 7.79925 5.74137C7.79925 5.74137 10.9582 6.34789 11.3878 6.34789C11.8174 6.34789 12.7272 5.99409 13.5865 5.7161C14.4457 5.43811 15.0017 5.43811 15.0017 5.43811C15.0017 5.43811 15.5577 5.43811 16.4169 5.7161C17.2761 5.99409 18.1859 6.34789 18.6155 6.34789C19.0451 6.34789 22.2041 5.74137 22.2041 5.74137ZM19.3989 23.0525C19.6264 23.2041 19.5 23.4821 19.2726 23.6084C19.0704 23.7601 16.2147 25.9587 15.962 26.2114C15.684 26.4641 15.2797 26.8432 15.0017 26.8432C14.7237 26.8432 14.3193 26.4389 14.0414 26.2114C13.7634 25.9587 10.9329 23.7601 10.7308 23.6084C10.5286 23.4568 10.377 23.1788 10.6044 23.0525C10.8318 22.9008 11.5647 22.547 12.5503 22.0163C13.5612 21.4856 14.7995 21.056 15.0017 21.056C15.2038 21.056 16.4422 21.4856 17.453 22.0163C18.4386 22.547 19.1462 22.9261 19.3989 23.0525Z" fill="white"/>
  <path d="M23.0087 3.6439L20.1025 0.333313H14.9976H9.86748L6.96124 3.6439C6.96124 3.6439 4.4088 2.9363 3.19576 4.14934C3.19576 4.14934 6.60743 3.84608 7.76993 5.74145C7.76993 5.74145 10.9289 6.34797 11.3585 6.34797C11.7881 6.34797 12.6979 5.99417 13.5571 5.71618C14.4164 5.43819 14.9724 5.43819 14.9724 5.43819C14.9724 5.43819 15.5283 5.43819 16.3876 5.71618C17.2468 5.99417 18.1566 6.34797 18.5862 6.34797C19.0158 6.34797 22.1748 5.74145 22.1748 5.74145C23.3373 3.84608 26.749 4.14934 26.749 4.14934C25.5612 2.9363 23.0087 3.6439 23.0087 3.6439Z" fill="url(#paint1_linear_3803_15243)"/>
  <defs>
    <linearGradient id="paint0_linear_3803_15243" x1="0.797128" y1="16.9933" x2="29.1803" y2="16.9933" gradientUnits="userSpaceOnUse">
      <stop stop-color="#FF5500"/>
      <stop offset="0.4099" stop-color="#FF5500"/>
      <stop offset="0.582" stop-color="#FF2000"/>
      <stop offset="1" stop-color="#FF2000"/>
    </linearGradient>
    <linearGradient id="paint1_linear_3803_15243" x1="3.71211" y1="3.33509" x2="26.766" y2="3.33509" gradientUnits="userSpaceOnUse">
      <stop stop-color="#FF452A"/>
      <stop offset="1" stop-color="#FF2000"/>
    </linearGradient>
  </defs>
</svg>