<svg xmlns="http://www.w3.org/2000/svg" width="60" height="60" viewBox="0 0 60 60" fill="none">
  <ellipse cx="29.9999" cy="30" rx="29.9999" ry="30" fill="#0033AD"/>
  <svg xmlns="http://www.w3.org/2000/svg" width="36" height="34" viewBox="0 0 36 34" x="12" y="13" fill="none">
  <path d="M9.86404 17.0069C9.82714 17.6496 10.0469 18.2807 10.475 18.7615C10.9032 19.2423 11.5046 19.5334 12.1473 19.571H12.2798C12.7531 19.5704 13.2159 19.4313 13.6111 19.1708C14.0062 18.9103 14.3165 18.5398 14.5035 18.105C14.6905 17.6702 14.7462 17.1901 14.6635 16.7241C14.5809 16.2581 14.3636 15.8264 14.0384 15.4824C13.7133 15.1385 13.2946 14.8972 12.8339 14.7885C12.3733 14.6797 11.8908 14.7082 11.4462 14.8705C11.0016 15.0328 10.6142 15.3217 10.3318 15.7016C10.0495 16.0814 9.88458 16.5357 9.85742 17.0082L9.86404 17.0069Z" fill="white"/>
  <path d="M0.826464 16.3933C0.671948 16.3847 0.518337 16.422 0.385042 16.5006C0.251747 16.5793 0.144753 16.6956 0.0775793 16.8351C0.010406 16.9745 -0.0139308 17.1307 0.00764444 17.2839C0.0292197 17.4372 0.0957386 17.5806 0.198795 17.696C0.301851 17.8115 0.436819 17.8938 0.586642 17.9326C0.736464 17.9713 0.894417 17.9648 1.04054 17.9139C1.18666 17.8629 1.31439 17.7697 1.40759 17.6462C1.50079 17.5226 1.55527 17.3742 1.56416 17.2197C1.57024 17.117 1.55596 17.014 1.52214 16.9168C1.48831 16.8196 1.43561 16.73 1.36707 16.6532C1.29852 16.5764 1.21547 16.5139 1.1227 16.4693C1.02992 16.4247 0.929251 16.3989 0.826464 16.3933Z" fill="white"/>
  <path d="M9.71057 2.94098C9.84819 2.87031 9.96183 2.76051 10.0372 2.62539C10.1125 2.49028 10.1462 2.3359 10.134 2.18168C10.1218 2.02746 10.0643 1.88029 9.9686 1.75871C9.87294 1.63713 9.74345 1.54656 9.59643 1.49841C9.44941 1.45027 9.29143 1.44669 9.14239 1.48813C8.99334 1.52957 8.85988 1.61417 8.75881 1.7313C8.65774 1.84842 8.59358 1.99283 8.57441 2.14634C8.55523 2.29985 8.5819 2.4556 8.65105 2.59399C8.69753 2.68662 8.76189 2.76913 8.84041 2.83677C8.91893 2.90441 9.01007 2.95584 9.10856 2.9881C9.20705 3.02035 9.31095 3.0328 9.41428 3.02471C9.5176 3.01662 9.6183 2.98817 9.71057 2.94098Z" fill="white"/>
  <path d="M12.1698 7.2283C12.3835 7.12049 12.5604 6.95173 12.6783 6.74336C12.7961 6.53499 12.8495 6.29637 12.8317 6.05765C12.814 5.81893 12.7258 5.59084 12.5784 5.40222C12.431 5.21359 12.231 5.0729 12.0037 4.99792C11.7764 4.92294 11.5319 4.91705 11.3012 4.98099C11.0706 5.04493 10.864 5.17583 10.7077 5.35714C10.5514 5.53844 10.4524 5.76202 10.4231 5.99961C10.3939 6.23719 10.4357 6.47811 10.5434 6.69192C10.6149 6.83397 10.7137 6.96053 10.8342 7.06437C10.9546 7.16822 11.0944 7.2473 11.2454 7.29712C11.3965 7.34693 11.5558 7.36649 11.7144 7.35468C11.873 7.34288 12.0278 7.29993 12.1698 7.2283Z" fill="white"/>
  <path d="M3.89269 10.1792C4.05754 10.2876 4.25084 10.3446 4.44814 10.3432C4.64544 10.3417 4.83786 10.2817 5.00106 10.1708C5.16427 10.06 5.29091 9.90316 5.36498 9.72029C5.43905 9.53741 5.45721 9.33668 5.41716 9.14348C5.37711 8.95029 5.28066 8.77331 5.14 8.63495C4.99934 8.49659 4.8208 8.40306 4.62698 8.3662C4.43315 8.32933 4.23274 8.35079 4.05111 8.42785C3.86948 8.50492 3.71479 8.63413 3.60662 8.79913C3.46174 9.02013 3.41049 9.28959 3.46412 9.54834C3.51776 9.80709 3.6719 10.034 3.89269 10.1792Z" fill="white"/>
  <path d="M5.36855 15.9516C5.12957 15.9381 4.89195 15.9958 4.68574 16.1173C4.47953 16.2389 4.31397 16.4188 4.21 16.6344C4.10603 16.85 4.06832 17.0916 4.10162 17.3286C4.13492 17.5657 4.23775 17.7875 4.39711 17.9661C4.55646 18.1447 4.76519 18.2721 4.99691 18.3321C5.22863 18.3921 5.47294 18.382 5.69895 18.3032C5.92496 18.2244 6.12254 18.0803 6.26669 17.8893C6.41085 17.6982 6.49513 17.4686 6.50886 17.2297C6.52694 16.909 6.417 16.5943 6.20319 16.3547C5.98937 16.115 5.68918 15.9701 5.36855 15.9516Z" fill="white"/>
  <path d="M4.02596 24.0901C3.84996 24.1791 3.70428 24.3182 3.60733 24.4899C3.51039 24.6617 3.46654 24.8583 3.48132 25.0549C3.4961 25.2516 3.56886 25.4394 3.69038 25.5948C3.81191 25.7501 3.97676 25.8659 4.16408 25.9275C4.3514 25.9891 4.5528 25.9939 4.7428 25.9411C4.93281 25.8883 5.10289 25.7803 5.23156 25.6309C5.36023 25.4814 5.4417 25.2972 5.46567 25.1014C5.48965 24.9057 5.45505 24.7072 5.36626 24.5312C5.30726 24.4141 5.22577 24.3099 5.12647 24.2244C5.02716 24.1389 4.91198 24.0738 4.78751 24.0329C4.66303 23.9919 4.53171 23.9759 4.40104 23.9857C4.27037 23.9955 4.14291 24.031 4.02596 24.0901Z" fill="white"/>
  <path d="M8.73234 13.45C8.96806 13.6045 9.2443 13.6856 9.52612 13.6831C9.80794 13.6806 10.0827 13.5946 10.3156 13.4359C10.5486 13.2773 10.7292 13.0531 10.8348 12.7918C10.9404 12.5305 10.9661 12.2437 10.9086 11.9678C10.8512 11.6919 10.7133 11.4392 10.5123 11.2416C10.3113 11.0441 10.0562 10.9106 9.7793 10.858C9.50241 10.8054 9.21615 10.8362 8.95672 10.9463C8.69728 11.0564 8.47632 11.2409 8.32177 11.4766C8.21896 11.6331 8.14802 11.8083 8.11301 11.9922C8.07799 12.1761 8.0796 12.3652 8.11774 12.5485C8.15588 12.7318 8.22979 12.9057 8.33525 13.0604C8.44071 13.2151 8.57565 13.3475 8.73234 13.45Z" fill="white"/>
  <path d="M23.6616 7.13307C23.8623 7.26399 24.0973 7.33246 24.3369 7.32984C24.5765 7.32722 24.81 7.25361 25.0078 7.11833C25.2056 6.98305 25.3588 6.79217 25.4482 6.56981C25.5375 6.34746 25.5589 6.10361 25.5096 5.86909C25.4604 5.63458 25.3428 5.41992 25.1715 5.25226C25.0003 5.0846 24.7833 4.97147 24.5478 4.92715C24.3123 4.88284 24.0689 4.90934 23.8485 5.0033C23.6281 5.09726 23.4404 5.25447 23.3093 5.45505C23.222 5.58828 23.1619 5.73744 23.1323 5.89396C23.1028 6.05048 23.1044 6.2113 23.1372 6.36718C23.1699 6.52307 23.2331 6.67097 23.3231 6.80239C23.413 6.93382 23.5281 7.04619 23.6616 7.13307Z" fill="white"/>
  <path d="M26.1452 2.85824C26.275 2.94327 26.427 2.98792 26.5821 2.98652C26.7372 2.98513 26.8884 2.93776 27.0166 2.8504C27.1448 2.76305 27.2442 2.63964 27.3022 2.49578C27.3602 2.35193 27.3743 2.1941 27.3426 2.04226C27.3109 1.89042 27.2348 1.75139 27.1241 1.64278C27.0134 1.53416 26.8729 1.46083 26.7205 1.43206C26.568 1.40329 26.4105 1.42038 26.2678 1.48117C26.1251 1.54196 26.0036 1.64371 25.9188 1.77355C25.8051 1.94746 25.7651 2.15938 25.8076 2.36275C25.85 2.56613 25.9715 2.74434 26.1452 2.85824Z" fill="white"/>
  <path d="M23.8525 14.6998C23.5346 14.6815 23.2163 14.7261 22.9157 14.8308C22.615 14.9356 22.338 15.0985 22.1003 15.3104C21.6203 15.7382 21.3299 16.3392 21.2931 16.9811C21.2562 17.623 21.4758 18.2533 21.9036 18.7333C22.3315 19.2132 22.9324 19.5036 23.5743 19.5405C23.6207 19.5405 23.6684 19.5405 23.7147 19.5405C24.1824 19.5403 24.6399 19.4048 25.0323 19.1503C25.4246 18.8959 25.735 18.5334 25.9259 18.1066C26.1169 17.6797 26.1803 17.2067 26.1085 16.7447C26.0367 16.2826 25.8327 15.8512 25.5212 15.5024C25.3103 15.2645 25.0541 15.071 24.7676 14.9333C24.4811 14.7955 24.17 14.7161 23.8525 14.6998Z" fill="white"/>
  <path d="M12.9658 13.282C13.167 13.684 13.4764 14.0218 13.8592 14.2574C14.242 14.4931 14.683 14.6171 15.1325 14.6157C15.5469 14.6158 15.9544 14.5097 16.3162 14.3075C16.6779 14.1053 16.9818 13.8137 17.1989 13.4607C17.4159 13.1076 17.5388 12.7049 17.5559 12.2908C17.5731 11.8767 17.4838 11.4652 17.2966 11.0954C17.094 10.6953 16.784 10.3595 16.4013 10.1256C16.0186 9.89164 15.5783 9.76888 15.1298 9.77102C14.7167 9.77173 14.3106 9.87798 13.95 10.0797C13.5895 10.2814 13.2864 10.5719 13.0696 10.9236C12.8528 11.2753 12.7295 11.6766 12.7113 12.0893C12.6932 12.5021 12.7807 12.9126 12.9658 13.282Z" fill="white"/>
  <path d="M31.97 10.1762C32.1461 10.0873 32.2918 9.94832 32.3888 9.77668C32.4859 9.60503 32.5299 9.40847 32.5152 9.21184C32.5006 9.0152 32.428 8.82731 32.3066 8.67193C32.1852 8.51654 32.0205 8.40062 31.8333 8.33882C31.646 8.27702 31.4447 8.27212 31.2546 8.32473C31.0646 8.37734 30.8944 8.4851 30.7656 8.63439C30.6368 8.78369 30.5552 8.96782 30.531 9.16351C30.5068 9.3592 30.5411 9.55767 30.6297 9.73383C30.7489 9.97011 30.957 10.1494 31.2083 10.2324C31.4596 10.3153 31.7336 10.2951 31.97 10.1762Z" fill="white"/>
  <path d="M25.8231 10.9477C25.5714 11.0745 25.3629 11.273 25.224 11.5183C25.0852 11.7636 25.0222 12.0445 25.0429 12.3256C25.0637 12.6067 25.1674 12.8753 25.3409 13.0974C25.5143 13.3196 25.7498 13.4853 26.0174 13.5737C26.2851 13.662 26.5729 13.669 26.8445 13.5938C27.1161 13.5186 27.3594 13.3645 27.5434 13.151C27.7275 12.9375 27.8441 12.6743 27.8785 12.3946C27.9129 12.1148 27.8637 11.8312 27.7369 11.5794C27.6528 11.4122 27.5366 11.2631 27.3949 11.1408C27.2532 11.0185 27.0888 10.9254 26.911 10.8667C26.7332 10.808 26.5457 10.785 26.359 10.7989C26.1723 10.8128 25.9902 10.8633 25.8231 10.9477Z" fill="white"/>
  <path d="M17.9074 2.49294C18.1043 2.50416 18.3002 2.45671 18.4702 2.3566C18.6402 2.25648 18.7766 2.1082 18.8623 1.93051C18.948 1.75282 18.9791 1.55371 18.9516 1.35835C18.9241 1.163 18.8393 0.980187 18.7079 0.833038C18.5766 0.685888 18.4045 0.581015 18.2135 0.531684C18.0224 0.482352 17.8211 0.49078 17.6349 0.5559C17.4487 0.62102 17.2859 0.739907 17.1673 0.897521C17.0487 1.05514 16.9794 1.2444 16.9684 1.44136C16.9535 1.7053 17.0441 1.96433 17.2202 2.16152C17.3963 2.3587 17.6434 2.47791 17.9074 2.49294Z" fill="white"/>
  <path d="M17.896 8.76927C18.1773 8.78505 18.457 8.71707 18.6997 8.57392C18.9424 8.43078 19.1372 8.21891 19.2596 7.96507C19.3819 7.71124 19.4262 7.42684 19.3869 7.14782C19.3476 6.8688 19.2265 6.60769 19.0389 6.39748C18.8513 6.18728 18.6055 6.03741 18.3328 5.96682C18.06 5.89624 17.7724 5.90811 17.5063 6.00092C17.2403 6.09374 17.0077 6.26334 16.8381 6.48829C16.6684 6.71324 16.5692 6.98344 16.5531 7.26475C16.5317 7.64232 16.6612 8.01291 16.913 8.29505C17.1649 8.57718 17.5184 8.74775 17.896 8.76927Z" fill="white"/>
  <path d="M10.176 23.3172C10.4277 23.1903 10.6361 22.9916 10.7749 22.7462C10.9136 22.5009 10.9765 22.2199 10.9556 21.9388C10.9346 21.6577 10.8308 21.3891 10.6572 21.167C10.4836 20.945 10.248 20.7794 9.9803 20.6912C9.71258 20.603 9.42471 20.5962 9.15312 20.6716C8.88152 20.747 8.63839 20.9013 8.45448 21.1149C8.27057 21.3285 8.15414 21.5919 8.11992 21.8717C8.0857 22.1515 8.13522 22.4351 8.26222 22.6868C8.43246 23.0241 8.72969 23.28 9.08857 23.3982C9.44745 23.5164 9.83859 23.4873 10.176 23.3172Z" fill="white"/>
  <path d="M18.8164 10.8487C18.5208 11.2997 18.3841 11.8365 18.4279 12.374C18.4717 12.9114 18.6935 13.419 19.0582 13.8162C19.4229 14.2134 19.9097 14.4777 20.4415 14.5672C20.9733 14.6566 21.5197 14.5662 21.9943 14.3101C22.4689 14.0541 22.8446 13.6471 23.0618 13.1536C23.2791 12.66 23.3256 12.1081 23.1939 11.5852C23.0622 11.0622 22.7598 10.5982 22.3347 10.2664C21.9096 9.93463 21.386 9.75411 20.8467 9.75342C20.444 9.75314 20.0475 9.85311 19.693 10.0443C19.3386 10.2355 19.0373 10.512 18.8164 10.8487Z" fill="white"/>
  <path d="M23.0311 20.9837C22.8369 20.5987 22.5435 20.2724 22.1811 20.0386C21.8188 19.8047 21.4006 19.6718 20.9697 19.6535C20.5389 19.6353 20.1109 19.7323 19.7301 19.9346C19.3492 20.1369 19.0293 20.4371 18.8032 20.8044C18.5771 21.1716 18.453 21.5925 18.4439 22.0236C18.4348 22.4548 18.5408 22.8806 18.7511 23.2571C18.9615 23.6336 19.2684 23.9471 19.6404 24.1654C20.0123 24.3836 20.4358 24.4987 20.867 24.4987C21.2464 24.4961 21.62 24.4054 21.9583 24.2338C22.5306 23.9441 22.9648 23.4394 23.1659 22.8303C23.367 22.2212 23.3185 21.5572 23.0311 20.9837Z" fill="white"/>
  <path d="M27.2677 20.8153C27.032 20.6606 26.7559 20.5793 26.474 20.5816C26.1922 20.5839 25.9173 20.6697 25.6843 20.8282C25.4512 20.9867 25.2704 21.2107 25.1646 21.472C25.0589 21.7333 25.033 22.02 25.0902 22.296C25.1475 22.572 25.2853 22.8248 25.4862 23.0224C25.6871 23.2201 25.9421 23.3538 26.219 23.4065C26.4958 23.4592 26.7821 23.4287 27.0416 23.3187C27.3011 23.2087 27.5222 23.0243 27.6769 22.7887C27.8836 22.4725 27.9566 22.0873 27.8799 21.7174C27.8032 21.3476 27.583 21.0232 27.2677 20.8153Z" fill="white"/>
  <path d="M31.9074 17.1742C31.9209 16.9352 31.8632 16.6976 31.7417 16.4914C31.6201 16.2852 31.4402 16.1196 31.2246 16.0157C31.009 15.9117 30.7674 15.874 30.5304 15.9073C30.2933 15.9406 30.0715 16.0434 29.8929 16.2028C29.7143 16.3621 29.5869 16.5709 29.5269 16.8026C29.4669 17.0343 29.477 17.2786 29.5558 17.5046C29.6346 17.7306 29.7787 17.9282 29.9697 18.0724C30.1608 18.2165 30.3904 18.3008 30.6293 18.3145C30.95 18.3326 31.2647 18.2227 31.5043 18.0089C31.744 17.795 31.8889 17.4948 31.9074 17.1742Z" fill="white"/>
  <path d="M35.2608 16.3114C35.1059 16.3024 34.952 16.3396 34.8183 16.4182C34.6846 16.4968 34.5772 16.6133 34.5098 16.7529C34.4423 16.8926 34.4177 17.0491 34.4392 17.2026C34.4607 17.3562 34.5272 17.5 34.6304 17.6158C34.7335 17.7315 34.8687 17.8141 35.0188 17.853C35.1689 17.892 35.3272 17.8855 35.4736 17.8345C35.6201 17.7835 35.7481 17.6902 35.8415 17.5664C35.9349 17.4426 35.9895 17.2939 35.9984 17.1391C36.01 16.9316 35.9389 16.728 35.8006 16.5728C35.6623 16.4177 35.4682 16.3236 35.2608 16.3114Z" fill="white"/>
  <path d="M32.1023 24.0859C31.9373 23.9778 31.744 23.9211 31.5468 23.9229C31.3496 23.9247 31.1574 23.9849 30.9944 24.0959C30.8314 24.207 30.705 24.3638 30.6312 24.5467C30.5573 24.7295 30.5393 24.9302 30.5795 25.1233C30.6197 25.3163 30.7162 25.4932 30.8568 25.6314C30.9975 25.7696 31.176 25.8631 31.3697 25.8999C31.5634 25.9367 31.7638 25.9152 31.9453 25.8382C32.1269 25.7612 32.2815 25.6321 32.3897 25.4672C32.4616 25.3577 32.5112 25.235 32.5356 25.1063C32.5601 24.9776 32.5589 24.8453 32.5322 24.717C32.5056 24.5887 32.4538 24.4669 32.3801 24.3586C32.3063 24.2504 32.2119 24.1577 32.1023 24.0859Z" fill="white"/>
  <path d="M9.85286 31.4062C9.72323 31.3212 9.57128 31.2765 9.41624 31.2777C9.26119 31.279 9.11 31.3262 8.98179 31.4134C8.85358 31.5006 8.7541 31.6239 8.69594 31.7676C8.63777 31.9113 8.62352 32.0691 8.655 32.2209C8.68647 32.3727 8.76226 32.5118 8.87277 32.6206C8.98328 32.7293 9.12356 32.8029 9.27587 32.8319C9.42818 32.861 9.58568 32.8442 9.72846 32.7837C9.87123 32.7233 9.99288 32.6218 10.078 32.4922C10.1346 32.4062 10.1736 32.3098 10.1929 32.2086C10.2122 32.1074 10.2114 32.0034 10.1904 31.9026C10.1695 31.8017 10.129 31.706 10.071 31.6208C10.0131 31.5357 9.93898 31.4627 9.85286 31.4062Z" fill="white"/>
  <path d="M26.2866 31.324C26.1481 31.3938 26.0335 31.5031 25.9571 31.6381C25.8807 31.773 25.8461 31.9276 25.8576 32.0823C25.8691 32.237 25.9262 32.3847 26.0217 32.5069C26.1172 32.6291 26.2468 32.7202 26.3941 32.7688C26.5414 32.8173 26.6998 32.8211 26.8492 32.7796C26.9986 32.7381 27.1324 32.6533 27.2336 32.5358C27.3348 32.4183 27.3989 32.2734 27.4178 32.1194C27.4366 31.9655 27.4094 31.8094 27.3395 31.671C27.2933 31.579 27.2294 31.497 27.1514 31.4297C27.0734 31.3624 26.9829 31.3112 26.8851 31.279C26.7873 31.2467 26.6841 31.2341 26.5814 31.2418C26.4787 31.2496 26.3785 31.2775 26.2866 31.324Z" fill="white"/>
  <path d="M17.1794 23.4122C17.475 22.9611 17.6117 22.4243 17.5678 21.8868C17.524 21.3492 17.3021 20.8417 16.9373 20.4445C16.5725 20.0472 16.0857 19.783 15.5538 19.6937C15.0219 19.6043 14.4755 19.6949 14.0009 19.9511C13.5263 20.2073 13.1507 20.6144 12.9336 21.1081C12.7165 21.6018 12.6702 22.1538 12.8021 22.6767C12.9341 23.1996 13.2367 23.6636 13.662 23.9952C14.0873 24.3268 14.6111 24.5071 15.1504 24.5075C15.5532 24.5089 15.9498 24.4093 16.3043 24.218C16.6587 24.0267 16.9595 23.7497 17.1794 23.4122Z" fill="white"/>
  <path d="M12.3361 27.1321C12.1358 27.001 11.9011 26.9323 11.6618 26.9346C11.4224 26.9369 11.1891 27.0101 10.9914 27.145C10.7936 27.2799 10.6403 27.4703 10.5507 27.6923C10.4612 27.9143 10.4395 28.1579 10.4884 28.3922C10.5372 28.6265 10.6545 28.8411 10.8253 29.0088C10.9961 29.1765 11.2127 29.2898 11.4479 29.3344C11.6831 29.379 11.9262 29.3528 12.1465 29.2593C12.3669 29.1657 12.5545 29.009 12.6857 28.8088C12.8615 28.54 12.9234 28.2125 12.8579 27.8981C12.7923 27.5837 12.6046 27.3082 12.3361 27.1321Z" fill="white"/>
  <path d="M17.9875 31.7715C17.7906 31.7603 17.5948 31.8077 17.4249 31.9078C17.2549 32.0079 17.1185 32.1561 17.0327 32.3337C16.947 32.5113 16.9159 32.7103 16.9433 32.9057C16.9706 33.101 17.0553 33.2838 17.1866 33.431C17.3178 33.5781 17.4898 33.6831 17.6807 33.7326C17.8716 33.782 18.0729 33.7738 18.2591 33.7089C18.4454 33.644 18.6082 33.5253 18.727 33.3679C18.8457 33.2104 18.9152 33.0213 18.9265 32.8244C18.934 32.6936 18.9157 32.5626 18.8726 32.4389C18.8294 32.3152 18.7624 32.2012 18.6752 32.1034C18.588 32.0056 18.4823 31.926 18.3644 31.869C18.2464 31.8121 18.1183 31.7789 17.9875 31.7715Z" fill="white"/>
  <path d="M17.9978 25.4973C17.7163 25.4801 17.4359 25.547 17.1924 25.6893C16.9488 25.8316 16.753 26.043 16.6297 26.2968C16.5064 26.5505 16.4611 26.8351 16.4997 27.1145C16.5383 27.394 16.6589 27.6557 16.8463 27.8665C17.0338 28.0773 17.2795 28.2278 17.5525 28.2988C17.8255 28.3699 18.1135 28.3583 18.3799 28.2655C18.6463 28.1728 18.8792 28.0031 19.0491 27.7779C19.219 27.5527 19.3182 27.2821 19.3342 27.0005C19.3559 26.624 19.2274 26.2543 18.9768 25.9725C18.7263 25.6907 18.3742 25.5198 17.9978 25.4973Z" fill="white"/>
  <path d="M23.8276 27.0359C23.6137 27.1444 23.4369 27.3139 23.3194 27.523C23.2019 27.732 23.1491 27.9712 23.1677 28.2103C23.1862 28.4494 23.2753 28.6776 23.4236 28.866C23.5719 29.0545 23.7728 29.1947 24.0008 29.2689C24.2289 29.3431 24.4738 29.348 24.7046 29.283C24.9354 29.2179 25.1417 29.0858 25.2975 28.9035C25.4532 28.7211 25.5513 28.4967 25.5794 28.2585C25.6075 28.0204 25.5643 27.7792 25.4553 27.5656C25.3833 27.4239 25.2841 27.2977 25.1633 27.1943C25.0425 27.0909 24.9025 27.0124 24.7513 26.9632C24.6001 26.914 24.4407 26.8951 24.2822 26.9075C24.1237 26.92 23.9692 26.9636 23.8276 27.0359Z" fill="white"/>
</svg>
</svg>