<svg xmlns="http://www.w3.org/2000/svg" width="34" height="34" viewBox="0 0 34 34" fill="none">
  <path fill-rule="evenodd" clip-rule="evenodd" d="M7.276 0.333344H26.7227C30.5587 0.333344 33.6667 3.67734 33.6667 7.80268V26.1973C33.6667 30.3227 30.5587 33.6667 26.724 33.6667H7.276C3.44134 33.6667 0.333336 30.3227 0.333336 26.1973V7.80268C0.333336 3.67734 3.44134 0.333344 7.276 0.333344Z" fill="#0052FF"/>
  <path fill-rule="evenodd" clip-rule="evenodd" d="M16.9995 5.16144C23.5381 5.16144 28.8381 10.4614 28.8381 17.0001C28.8381 23.5388 23.5381 28.8388 16.9995 28.8388C10.4608 28.8388 5.16081 23.5388 5.16081 17.0001C5.16081 10.4614 10.4608 5.16144 16.9995 5.16144Z" fill="white"/>
  <path fill-rule="evenodd" clip-rule="evenodd" d="M14.0855 13.216H19.9161C20.3961 13.216 20.7841 13.6347 20.7841 14.1494V19.8494C20.7841 20.3654 20.3948 20.7827 19.9161 20.7827H14.0855C13.6055 20.7827 13.2175 20.364 13.2175 19.8494V14.1494C13.2175 13.6347 13.6068 13.216 14.0855 13.216Z" fill="#0052FF"/>
</svg>