<svg xmlns="http://www.w3.org/2000/svg" width="60" height="60" viewBox="0 0 60 60" fill="none">
  <ellipse cx="29.9999" cy="30" rx="29.9999" ry="30" fill="#00284C"/>
  <svg xmlns="http://www.w3.org/2000/svg" width="36" height="36" viewBox="0 0 36 36" fill="none" x="12" y="12">
  <path d="M35.0661 35.0651C36.3113 33.8199 36.3113 31.8011 35.0661 30.5559C33.8209 29.3106 31.802 29.3106 30.5568 30.5559C29.3116 31.8011 29.3116 33.8199 30.5568 35.0651C31.802 36.3103 33.8209 36.3103 35.0661 35.0651Z" fill="white"/>
  <path d="M5.44318 35.0651C6.68838 33.8199 6.68838 31.8011 5.44318 30.5559C4.19798 29.3106 2.17911 29.3106 0.933902 30.5559C-0.311301 31.8011 -0.311301 33.8199 0.933902 35.0651C2.17911 36.3103 4.19798 36.3103 5.44318 35.0651Z" fill="white"/>
  <path d="M5.44318 5.44318C6.68838 4.19798 6.68838 2.1791 5.44318 0.933902C4.19798 -0.311301 2.17911 -0.311301 0.933902 0.933902C-0.311301 2.1791 -0.311301 4.19798 0.933902 5.44318C2.17911 6.68838 4.19798 6.68838 5.44318 5.44318Z" fill="white"/>
  <path d="M35.0661 5.44318C36.3113 4.19798 36.3113 2.1791 35.0661 0.933902C33.8209 -0.311301 31.802 -0.311301 30.5568 0.933902C29.3116 2.1791 29.3116 4.19798 30.5568 5.44318C31.802 6.68838 33.8209 6.68838 35.0661 5.44318Z" fill="white"/>
  <path fill-rule="evenodd" clip-rule="evenodd" d="M7.8963 3.38724C13.9589 -0.808768 22.0474 -0.808768 28.1024 3.38724L23.4739 8.01575C20.0746 6.14917 15.9241 6.14917 12.5248 8.01575L7.8963 3.38724ZM32.6095 7.89435C36.8055 13.9569 36.8055 22.0455 32.6095 28.1005L27.981 23.4719C29.8476 20.0726 29.8476 15.9222 27.981 12.5229L32.6095 7.89435ZM28.1024 32.6076C22.0474 36.8036 13.9589 36.8036 7.8963 32.6076L12.5248 27.9791C15.9241 29.8456 20.0746 29.8456 23.4739 27.9791L28.1024 32.6076ZM3.3892 28.1005C-0.806815 22.0455 -0.806815 13.9569 3.3892 7.89435L8.01771 12.5229C6.15113 15.9222 6.15113 20.0726 8.01771 23.4719L3.3892 28.1005Z" fill="white"/>
  <path d="M18.4826 18.4831C18.7494 18.2163 18.7494 17.7837 18.4826 17.5169C18.2158 17.25 17.7832 17.25 17.5163 17.5169C17.2495 17.7837 17.2495 18.2163 17.5163 18.4831C17.7832 18.75 18.2158 18.75 18.4826 18.4831Z" fill="white"/>
  <path d="M7.30488 7.30638C7.5717 7.03955 7.5717 6.60694 7.30488 6.34011C7.03805 6.07328 6.60543 6.07328 6.3386 6.34011C6.07178 6.60694 6.07178 7.03955 6.3386 7.30638C6.60543 7.57321 7.03805 7.57321 7.30488 7.30638Z" fill="white"/>
  <path d="M9.16816 9.16966C9.43499 8.90283 9.43499 8.47022 9.16816 8.20339C8.90133 7.93656 8.46871 7.93656 8.20189 8.20339C7.93506 8.47022 7.93506 8.90283 8.20189 9.16966C8.46871 9.43649 8.90133 9.43649 9.16816 9.16966Z" fill="white"/>
  <path d="M11.0314 11.03C11.2983 10.7632 11.2983 10.3306 11.0314 10.0637C10.7646 9.79691 10.332 9.79691 10.0652 10.0637C9.79834 10.3306 9.79834 10.7632 10.0652 11.03C10.332 11.2968 10.7646 11.2968 11.0314 11.03Z" fill="white"/>
  <path d="M12.8947 12.8933C13.1615 12.6265 13.1615 12.1938 12.8947 11.927C12.6279 11.6602 12.1953 11.6602 11.9284 11.927C11.6616 12.1938 11.6616 12.6265 11.9284 12.8933C12.1953 13.1601 12.6279 13.1601 12.8947 12.8933Z" fill="white"/>
  <path d="M14.758 14.7566C15.0248 14.4897 15.0248 14.0571 14.758 13.7903C14.4912 13.5235 14.0586 13.5235 13.7917 13.7903C13.5249 14.0571 13.5249 14.4897 13.7917 14.7566C14.0586 15.0234 14.4912 15.0234 14.758 14.7566Z" fill="white"/>
  <path d="M16.6213 16.6199C16.8881 16.353 16.8881 15.9204 16.6213 15.6536C16.3545 15.3868 15.9218 15.3868 15.655 15.6536C15.3882 15.9204 15.3882 16.353 15.655 16.6199C15.9218 16.8867 16.3545 16.8867 16.6213 16.6199Z" fill="white"/>
  <path d="M20.3459 20.3464C20.6127 20.0796 20.6127 19.647 20.3459 19.3801C20.0791 19.1133 19.6464 19.1133 19.3796 19.3801C19.1128 19.647 19.1128 20.0796 19.3796 20.3464C19.6464 20.6132 20.0791 20.6132 20.3459 20.3464Z" fill="white"/>
  <path d="M22.2092 22.2097C22.476 21.9429 22.476 21.5103 22.2092 21.2434C21.9423 20.9766 21.5097 20.9766 21.2429 21.2434C20.9761 21.5103 20.9761 21.9429 21.2429 22.2097C21.5097 22.4765 21.9423 22.4765 22.2092 22.2097Z" fill="white"/>
  <path d="M24.0725 24.073C24.3393 23.8062 24.3393 23.3735 24.0725 23.1067C23.8056 22.8399 23.373 22.8399 23.1062 23.1067C22.8394 23.3735 22.8394 23.8062 23.1062 24.073C23.373 24.3398 23.8056 24.3398 24.0725 24.073Z" fill="white"/>
  <path d="M25.9338 25.9363C26.2006 25.6694 26.2006 25.2368 25.9338 24.97C25.667 24.7032 25.2343 24.7032 24.9675 24.97C24.7007 25.2368 24.7007 25.6694 24.9675 25.9363C25.2343 26.2031 25.667 26.2031 25.9338 25.9363Z" fill="white"/>
  <path d="M27.7971 27.7966C28.0639 27.5298 28.0639 27.0972 27.7971 26.8303C27.5302 26.5635 27.0976 26.5635 26.8308 26.8303C26.564 27.0972 26.564 27.5298 26.8308 27.7966C27.0976 28.0634 27.5302 28.0634 27.7971 27.7966Z" fill="white"/>
  <path d="M29.6603 29.6598C29.9272 29.3929 29.9272 28.9603 29.6603 28.6935C29.3935 28.4267 28.9609 28.4267 28.6941 28.6935C28.4272 28.9603 28.4272 29.3929 28.6941 29.6598C28.9609 29.9266 29.3935 29.9266 29.6603 29.6598Z" fill="white"/>
  <path d="M7.3054 28.694C7.03857 28.4272 6.60596 28.4272 6.33913 28.694C6.0723 28.9609 6.0723 29.3935 6.33913 29.6603C6.60596 29.9271 7.03857 29.9271 7.3054 29.6603C7.57223 29.3935 7.57223 28.9609 7.3054 28.694Z" fill="white"/>
  <path d="M9.16868 26.8309C8.90185 26.564 8.46924 26.564 8.20241 26.8309C7.93558 27.0977 7.93558 27.5303 8.20241 27.7971C8.46924 28.064 8.90185 28.064 9.16868 27.7971C9.43551 27.5303 9.43551 27.0977 9.16868 26.8309Z" fill="white"/>
  <path d="M11.032 24.9676C10.7651 24.7008 10.3325 24.7008 10.0657 24.9676C9.79886 25.2344 9.79886 25.667 10.0657 25.9339C10.3325 26.2007 10.7651 26.2007 11.032 25.9339C11.2988 25.667 11.2988 25.2344 11.032 24.9676Z" fill="white"/>
  <path d="M12.8952 23.1043C12.6284 22.8375 12.1958 22.8375 11.929 23.1043C11.6621 23.3711 11.6621 23.8037 11.929 24.0706C12.1958 24.3374 12.6284 24.3374 12.8952 24.0706C13.1621 23.8037 13.1621 23.3711 12.8952 23.1043Z" fill="white"/>
  <path d="M14.7585 21.244C14.4917 20.9771 14.0591 20.9771 13.7923 21.244C13.5254 21.5108 13.5254 21.9434 13.7923 22.2102C14.0591 22.4771 14.4917 22.4771 14.7585 22.2102C15.0254 21.9434 15.0254 21.5108 14.7585 21.244Z" fill="white"/>
  <path d="M16.6199 19.3807C16.353 19.1138 15.9204 19.1138 15.6536 19.3807C15.3868 19.6475 15.3868 20.0801 15.6536 20.3469C15.9204 20.6138 16.353 20.6138 16.6199 20.3469C16.8867 20.0801 16.8867 19.6475 16.6199 19.3807Z" fill="white"/>
  <path d="M20.3464 15.6541C20.0796 15.3873 19.647 15.3873 19.3801 15.6541C19.1133 15.9209 19.1133 16.3536 19.3801 16.6204C19.647 16.8872 20.0796 16.8872 20.3464 16.6204C20.6132 16.3536 20.6132 15.9209 20.3464 15.6541Z" fill="white"/>
  <path d="M22.2077 13.7908C21.9409 13.524 21.5083 13.524 21.2415 13.7908C20.9746 14.0577 20.9746 14.4903 21.2415 14.7571C21.5083 15.0239 21.9409 15.0239 22.2077 14.7571C22.4746 14.4903 22.4746 14.0577 22.2077 13.7908Z" fill="white"/>
  <path d="M24.071 11.9275C23.8042 11.6607 23.3716 11.6607 23.1048 11.9275C22.8379 12.1944 22.8379 12.627 23.1048 12.8938C23.3716 13.1606 23.8042 13.1606 24.071 12.8938C24.3379 12.627 24.3379 12.1944 24.071 11.9275Z" fill="white"/>
  <path d="M25.9343 10.0643C25.6675 9.79744 25.2349 9.79744 24.968 10.0643C24.7012 10.3311 24.7012 10.7637 24.968 11.0305C25.2349 11.2974 25.6675 11.2974 25.9343 11.0305C26.2011 10.7637 26.2011 10.3311 25.9343 10.0643Z" fill="white"/>
  <path d="M27.7976 8.20098C27.5308 7.93416 27.0981 7.93416 26.8313 8.20098C26.5645 8.46781 26.5645 8.90043 26.8313 9.16725C27.0981 9.43408 27.5308 9.43408 27.7976 9.16725C28.0644 8.90043 28.0644 8.46781 27.7976 8.20098Z" fill="white"/>
  <path d="M29.6609 6.34063C29.394 6.0738 28.9614 6.0738 28.6946 6.34063C28.4278 6.60746 28.4278 7.04008 28.6946 7.3069C28.9614 7.57373 29.394 7.57373 29.6609 7.3069C29.9277 7.04008 29.9277 6.60746 29.6609 6.34063Z" fill="white"/>
</svg>
</svg>