<svg width="22" height="20" viewBox="0 0 22 20" fill="none" xmlns="http://www.w3.org/2000/svg">
<g id="Group 106">
<path id="Vector" d="M20.0047 0.729492L12.2008 6.52557L13.6439 3.10596L20.0047 0.729492Z" fill="#E2761B" stroke="#E2761B" stroke-linecap="round" stroke-linejoin="round"/>
<path id="Vector_2" d="M1.98826 0.729492L9.72944 6.58047L8.35689 3.10596L1.98826 0.729492ZM17.1961 14.1648L15.1177 17.3491L19.5647 18.5726L20.8432 14.2354L17.1961 14.1648ZM1.16473 14.2354L2.43532 18.5726L6.88238 17.3491L4.80395 14.1648L1.16473 14.2354Z" fill="#E4761B" stroke="#E4761B" stroke-linecap="round" stroke-linejoin="round"/>
<path id="Vector_3" d="M6.63167 8.7841L5.39246 10.6586L9.80814 10.8547L9.65128 6.10959L6.63167 8.7841ZM15.3611 8.7841L12.3023 6.05469L12.2003 10.8547L16.6081 10.6586L15.3611 8.7841ZM6.88265 17.3488L9.53363 16.0547L7.24344 14.2665L6.88265 17.3488ZM12.4591 16.0547L15.1179 17.3488L14.7493 14.2665L12.4591 16.0547Z" fill="#E4761B" stroke="#E4761B" stroke-linecap="round" stroke-linejoin="round"/>
<path id="Vector_4" d="M15.1184 17.349L12.4595 16.0549L12.6713 17.7883L12.6478 18.5177L15.1184 17.349ZM6.88306 17.349L9.35364 18.5177L9.33796 17.7883L9.53404 16.0549L6.88306 17.349Z" fill="#D7C1B3" stroke="#D7C1B3" stroke-linecap="round" stroke-linejoin="round"/>
<path id="Vector_5" d="M9.3917 13.1218L7.17993 12.4708L8.74072 11.7571L9.3917 13.1218ZM12.5995 13.1218L13.2505 11.7571L14.8191 12.4708L12.5995 13.1218Z" fill="#233447" stroke="#233447" stroke-linecap="round" stroke-linejoin="round"/>
<path id="Vector_6" d="M6.88318 17.3491L7.25965 14.1648L4.80475 14.2354L6.88318 17.3491ZM14.742 14.1648L15.1185 17.3491L17.1969 14.2354L14.742 14.1648ZM16.6087 10.6589L12.2008 10.855L12.6087 13.1217L13.2597 11.757L14.8283 12.4707L16.6087 10.6589ZM7.18122 12.4707L8.74985 11.757L9.39298 13.1217L9.80867 10.855L5.39298 10.6589L7.18122 12.4707Z" fill="#CD6116" stroke="#CD6116" stroke-linecap="round" stroke-linejoin="round"/>
<path id="Vector_7" d="M5.39246 10.6589L7.24344 14.2668L7.18069 12.4707L5.39246 10.6589ZM14.8277 12.4707L14.7493 14.2668L16.6081 10.6589L14.8277 12.4707ZM9.80814 10.855L9.39246 13.1217L9.9101 15.7962L10.0277 12.2746L9.80814 10.855ZM12.2003 10.855L11.9885 12.2668L12.0827 15.7962L12.6081 13.1217L12.2003 10.855Z" fill="#E4751F" stroke="#E4751F" stroke-linecap="round" stroke-linejoin="round"/>
<path id="Vector_8" d="M12.6074 13.1218L12.0819 15.7963L12.4584 16.0551L14.7486 14.2669L14.827 12.4708L12.6074 13.1218ZM7.17993 12.4708L7.24268 14.2669L9.53287 16.0551L9.90934 15.7963L9.3917 13.1218L7.17993 12.4708Z" fill="#F6851B" stroke="#F6851B" stroke-linecap="round" stroke-linejoin="round"/>
<path id="Vector_9" d="M12.6478 18.5175L12.6713 17.7881L12.4752 17.6155H9.51835L9.33796 17.7881L9.35364 18.5175L6.88306 17.3489L7.7458 18.0548L9.49482 19.2704H12.4987L14.2556 18.0548L15.1184 17.3489L12.6478 18.5175Z" fill="#C0AD9E" stroke="#C0AD9E" stroke-linecap="round" stroke-linejoin="round"/>
<path id="Vector_10" d="M12.4591 16.0551L12.0826 15.7963H9.91007L9.5336 16.0551L9.33752 17.7884L9.51792 17.6159H12.4748L12.6709 17.7884L12.4591 16.0551Z" fill="#161616" stroke="#161616" stroke-linecap="round" stroke-linejoin="round"/>
<path id="Vector_11" d="M20.3333 6.90204L21 3.70204L20.0039 0.729492L12.4588 6.32949L15.3608 8.78439L19.4627 9.98439L20.3725 8.92557L19.9804 8.64322L20.6078 8.07067L20.1216 7.6942L20.749 7.21577L20.3333 6.90204ZM1 3.70204L1.66667 6.90204L1.24314 7.21577L1.87059 7.6942L1.39216 8.07067L2.01961 8.64322L1.62745 8.92557L2.52941 9.98439L6.63137 8.78439L9.53333 6.32949L1.98824 0.729492L1 3.70204Z" fill="#763D16" stroke="#763D16" stroke-linecap="round" stroke-linejoin="round"/>
<path id="Vector_12" d="M19.4628 9.98414L15.3608 8.78414L16.6079 10.6587L14.749 14.2665L17.1961 14.2351H20.8432L19.4628 9.98414ZM6.6314 8.78414L2.52944 9.98414L1.16473 14.2351H4.80395L7.24316 14.2665L5.39218 10.6587L6.6314 8.78414ZM12.2 10.8547L12.4588 6.32924L13.651 3.10571H8.35689L9.53336 6.32924L9.80787 10.8547L9.90199 12.2822L9.90983 15.7959H12.0824L12.0981 12.2822L12.2 10.8547Z" fill="#F6851B" stroke="#F6851B" stroke-linecap="round" stroke-linejoin="round"/>
</g>
</svg>
