<svg xmlns="http://www.w3.org/2000/svg" width="34" height="34" viewBox="0 0 34 34" fill="none">
  <path d="M16.9989 0.334034C7.79446 0.334034 0.332687 7.79581 0.332687 17.0003C0.332687 25.9384 7.36937 33.2332 16.2052 33.6471C16.4689 33.6596 16.733 33.6666 16.9992 33.6666C21.2662 33.6666 25.1577 32.0621 28.1063 29.4253C26.1527 30.7209 23.8686 31.4664 21.4277 31.4664C17.4587 31.4664 13.9042 29.4974 11.5135 26.3925C9.67063 24.2171 8.47702 21.0014 8.39571 17.3926V16.6077C8.47697 12.999 9.67058 9.78272 11.5131 7.60786C13.904 4.50292 17.4585 2.53397 21.4272 2.53397C23.8688 2.53397 26.1532 3.27944 28.107 4.57588C25.1728 1.95106 21.3049 0.349876 17.0616 0.334122C17.0405 0.334122 17.0197 0.333294 16.9986 0.333294L16.9989 0.334034Z" fill="url(#paint0_linear_3803_15237)"/>
  <path d="M11.5143 7.60878C13.0438 5.80322 15.019 4.71444 17.1769 4.71444C22.029 4.71444 25.9616 10.2154 25.9616 17.001C25.9616 23.7866 22.0287 29.2876 17.1769 29.2876C15.019 29.2876 13.0438 28.1992 11.5147 26.3936C13.9053 29.4986 17.4596 31.4675 21.4289 31.4675C23.87 31.4675 26.1541 30.7221 28.1075 29.4264C31.5188 26.3746 33.6669 21.9388 33.6669 17.0011C33.6669 12.064 31.5192 7.62848 28.1087 4.57698C26.1547 3.28053 23.8703 2.53506 21.4289 2.53506C17.46 2.53506 13.905 4.50384 11.5143 7.60878Z" fill="url(#paint1_linear_3803_15237)"/>
  <defs>
    <linearGradient id="paint0_linear_3803_15237" x1="14.2203" y1="0.877309" x2="14.2203" y2="33.1821" gradientUnits="userSpaceOnUse">
      <stop stop-color="#FF1B2D"/>
      <stop offset="0.3" stop-color="#FF1B2D"/>
      <stop offset="0.614" stop-color="#FF1B2D"/>
      <stop offset="1" stop-color="#A70014"/>
    </linearGradient>
    <linearGradient id="paint1_linear_3803_15237" x1="22.5903" y1="2.78165" x2="22.5903" y2="31.3535" gradientUnits="userSpaceOnUse">
      <stop stop-color="#9C0000"/>
      <stop offset="0.7" stop-color="#FF4B4B"/>
      <stop offset="1" stop-color="#FF4B4B"/>
    </linearGradient>
  </defs>
</svg>