<svg xmlns="http://www.w3.org/2000/svg" width="60" height="60" viewBox="0 0 60 60" fill="none">
  <ellipse cx="29.9999" cy="30" rx="29.9999" ry="30" fill="#E6007A"/>
  <path d="M30.0006 20.7157C33.4268 20.7157 36.2043 19.1003 36.2043 17.1076C36.2043 15.1149 33.4268 13.4995 30.0006 13.4995C26.5744 13.4995 23.7969 15.1149 23.7969 17.1076C23.7969 19.1003 26.5744 20.7157 30.0006 20.7157Z" fill="white"/>
  <path d="M30.0006 47.9019C33.4268 47.9019 36.2043 46.2866 36.2043 44.2939C36.2043 42.3012 33.4268 40.6858 30.0006 40.6858C26.5744 40.6858 23.7969 42.3012 23.7969 44.2939C23.7969 46.2866 26.5744 47.9019 30.0006 47.9019Z" fill="white"/>
  <path d="M21.3552 25.7107C23.0683 22.7436 23.0572 19.5301 21.3304 18.533C19.6036 17.536 16.815 19.1331 15.1019 22.1002C13.3887 25.0673 13.3999 28.2809 15.1267 29.2779C16.8535 30.2749 19.6421 28.6778 21.3552 25.7107Z" fill="white"/>
  <path d="M44.8979 39.3023C46.611 36.3352 46.6008 33.1222 44.8752 32.1258C43.1495 31.1295 40.3618 32.7271 38.6487 35.6942C36.9356 38.6613 36.9458 41.8743 38.6715 42.8707C40.3971 43.867 43.1848 42.2694 44.8979 39.3023Z" fill="white"/>
  <path d="M21.3324 42.87C23.0592 41.873 23.0703 38.6595 21.3572 35.6923C19.6441 32.7252 16.8555 31.1281 15.1286 32.1252C13.4018 33.1222 13.3907 36.3357 15.1038 39.3029C16.8169 42.27 19.6055 43.8671 21.3324 42.87Z" fill="white"/>
  <path d="M44.8752 29.2775C46.6008 28.2812 46.611 25.0682 44.8979 22.101C43.1848 19.1339 40.3971 17.5363 38.6715 18.5326C36.9458 19.529 36.9356 22.742 38.6487 25.7091C40.3618 28.6762 43.1495 30.2739 44.8752 29.2775Z" fill="white"/>
</svg>