<svg xmlns="http://www.w3.org/2000/svg" width="60" height="60" viewBox="0 0 60 60" fill="none">
  <path d="M29.9999 59.9999C46.5684 59.9999 59.9999 46.5684 59.9999 29.9999C59.9999 13.4314 46.5684 0 29.9999 0C13.4314 0 0 13.4314 0 29.9999C0 46.5684 13.4314 59.9999 29.9999 59.9999Z" fill="black"/>
  <path d="M18.5121 38.2694C18.6256 38.145 18.7638 38.0457 18.918 37.978C19.0717 37.9107 19.2375 37.8756 19.4052 37.8748L46.8971 37.8976C47.0143 37.8976 47.1289 37.9317 47.227 37.9957C47.3252 38.0597 47.4026 38.1509 47.4498 38.2581C47.497 38.3653 47.5121 38.4839 47.4931 38.5995C47.4741 38.7152 47.4219 38.8227 47.3429 38.9092L41.4882 45.3558C41.3751 45.4801 41.2372 45.5795 41.0834 45.6474C40.9296 45.7154 40.7633 45.7504 40.5951 45.7503L13.104 45.7276C12.987 45.7272 12.8726 45.6929 12.7747 45.6289C12.6768 45.5648 12.5996 45.4737 12.5524 45.3666C12.5052 45.2596 12.4901 45.1411 12.5089 45.0256C12.5277 44.9101 12.5795 44.8026 12.6582 44.716L18.5121 38.2694ZM47.3404 32.9035C47.4195 32.99 47.4717 33.0976 47.4907 33.2132C47.5097 33.3288 47.4946 33.4475 47.4474 33.5547C47.4001 33.6619 47.3227 33.7531 47.2246 33.8171C47.1265 33.8811 47.0118 33.9152 46.8947 33.9152L19.4035 33.9379C19.2354 33.938 19.0691 33.903 18.9153 33.835C18.7615 33.7671 18.6236 33.6677 18.5104 33.5433L12.6574 27.0935C12.5787 27.0068 12.5268 26.899 12.508 26.7834C12.489 26.6679 12.504 26.5494 12.5511 26.4423C12.5982 26.3352 12.6755 26.2441 12.7735 26.1802C12.8716 26.1162 12.9861 26.0818 13.1032 26.0811L40.5951 26.0592C40.7633 26.0588 40.9297 26.0938 41.0835 26.1617C41.2374 26.2297 41.3752 26.3292 41.4882 26.4538L47.3404 32.9035ZM18.5121 14.6446C18.6251 14.52 18.7629 14.4205 18.9168 14.3526C19.0706 14.2846 19.237 14.2497 19.4052 14.25L46.8971 14.2727C47.0142 14.2729 47.1287 14.307 47.2267 14.371C47.3247 14.435 47.402 14.5261 47.4492 14.6332C47.4964 14.7401 47.5115 14.8585 47.4926 14.9738C47.4737 15.0891 47.4217 15.1965 47.3429 15.2827L41.4882 21.7293C41.3751 21.8537 41.2372 21.953 41.0834 22.021C40.9296 22.0889 40.7633 22.124 40.5951 22.1239L13.104 22.1011C12.9868 22.1011 12.8721 22.067 12.7741 22.0028C12.676 21.9386 12.5988 21.8472 12.5519 21.7398C12.5051 21.6328 12.4903 21.5146 12.5091 21.3994C12.528 21.2841 12.5798 21.1768 12.6582 21.0903L18.5121 14.6446Z" fill="url(#paint0_linear_2356_44491)"/>
  <defs>
    <linearGradient id="paint0_linear_2356_44491" x1="13.5627" y1="46.4364" x2="46.4352" y2="13.5639" gradientUnits="userSpaceOnUse">
      <stop stop-color="#9945FF"/>
      <stop offset="0.2" stop-color="#7962E7"/>
      <stop offset="1" stop-color="#00D18C"/>
    </linearGradient>
  </defs>
</svg>