<svg xmlns="http://www.w3.org/2000/svg" width="40" height="40" viewBox="0 0 40 40" fill="none">
  <ellipse cx="19.9999" cy="20" rx="19.9999" ry="20" fill="#7D8FA9"/>
<svg xmlns="http://www.w3.org/2000/svg" width="10" height="14" viewBox="0 0 10 14"  fill="none" x="15" y="13">
  <path d="M4.52859 0.976563C4.78917 0.716146 5.21113 0.716146 5.47138 0.976563L9.24262 4.7474C9.50296 5.00781 9.5032 5.42969 9.24262 5.69011C8.98213 5.95183 8.56017 5.95052 8.29983 5.69011L5.6667 3.05729V12.5521C5.6667 12.9206 5.36819 13.2188 5.00003 13.2188C4.63187 13.2188 4.33336 12.9206 4.33336 12.5521V3.05729L1.70023 5.69011C1.43965 5.95183 1.01769 5.95052 0.757355 5.69011C0.497019 5.42969 0.496775 5.00781 0.757355 4.7474L4.52859 0.976563Z" fill="white"/>
</svg>
</svg>