<svg xmlns="http://www.w3.org/2000/svg" width="60" height="60" viewBox="0 0 60 60" fill="none">
  <circle cx="29.9999" cy="29.9999" r="29.9999" fill="#50AF95"/>
  <path fill-rule="evenodd" clip-rule="evenodd" d="M26.3377 32.7875C26.5422 32.8028 27.5991 32.8657 29.9566 32.8657C31.8317 32.8657 33.163 32.8096 33.63 32.7875C40.8764 32.4694 46.2852 31.2106 46.2852 29.7035C46.2852 28.1964 40.8764 26.9394 33.63 26.6162V31.5338C33.1561 31.5678 31.7993 31.6478 29.9242 31.6478C27.6741 31.6478 26.5473 31.5542 26.3445 31.5355V26.6196C19.1135 26.9411 13.7166 28.1998 13.7166 29.7035C13.7166 31.2072 19.1118 32.466 26.3445 32.7858L26.3377 32.7875ZM26.3377 26.111V21.7105H16.2463V15H43.7214V21.7105H33.6317V26.1093C41.8327 26.4852 48 28.1063 48 30.0488C48 31.9914 41.8327 33.6107 33.6317 33.9884V48.0897H26.3394V33.9833C18.1572 33.6073 12.0001 31.988 12.0001 30.0471C12.0001 28.1063 18.1521 26.4869 26.3394 26.1093L26.3377 26.111Z" fill="white"/>
</svg>