<svg xmlns="http://www.w3.org/2000/svg" width="28" height="30" viewBox="0 0 28 30" fill="none">
  <path fill-rule="evenodd" clip-rule="evenodd" d="M12.9782 0.357909C13.5651 -0.119297 14.4187 -0.119304 15.0056 0.357892C18.9892 3.59697 23.5321 3.57231 25.3009 3.56271C25.3888 3.56223 25.4699 3.56179 25.5437 3.56179C25.9672 3.56179 26.373 3.72718 26.6702 4.02092C26.9675 4.31465 27.1312 4.71218 27.1248 5.12444C27.041 10.5338 26.8184 14.3996 26.3803 17.2358C25.9425 20.0702 25.2695 22.0264 24.1764 23.5053C23.0751 24.9952 21.6603 25.8391 20.1714 26.6401C19.9129 26.7792 19.6495 26.9182 19.3802 27.0604C18.0751 27.7497 16.6302 28.5127 14.9136 29.7114C14.3627 30.0962 13.6211 30.0962 13.0702 29.7114C11.3553 28.5138 9.91236 27.7512 8.60925 27.0625C8.33866 26.9194 8.0741 26.7796 7.81438 26.6397C6.32667 25.8385 4.91378 24.9944 3.81465 23.5039C2.72401 22.0249 2.05328 20.0688 1.61715 17.2351C1.18071 14.3992 0.959014 10.5336 0.87518 5.12445C0.868791 4.71219 1.03254 4.31466 1.32975 4.02092C1.62696 3.72718 2.03278 3.56179 2.4563 3.56179C2.5293 3.56179 2.60959 3.56223 2.69677 3.56271C4.45131 3.57232 8.99437 3.59722 12.9782 0.357909ZM13.9919 3.48326C10.275 6.06333 6.34723 6.54543 4.06629 6.62821C4.16632 11.1834 4.38128 14.4165 4.74485 16.7788C5.1487 19.4029 5.71578 20.8025 6.38376 21.7083C7.04326 22.6027 7.90981 23.1725 9.34533 23.9456C9.57853 24.0712 9.8248 24.2012 10.0836 24.3379C11.1751 24.9141 12.4902 25.6083 13.9919 26.5876C15.4959 25.607 16.813 24.9123 17.9064 24.3356C18.1641 24.1997 18.4094 24.0703 18.6417 23.9453C20.0792 23.1719 20.9479 22.6018 21.6093 21.707C22.2789 20.8011 22.8476 19.4016 23.2529 16.778C23.6177 14.4161 23.8335 11.1834 23.9337 6.62853C21.6473 6.54662 17.7136 6.0665 13.9919 3.48326Z" fill="#7D8FA9"/>
</svg>