<svg xmlns="http://www.w3.org/2000/svg" width="40" height="40" viewBox="0 0 40 40" fill="none">
  <ellipse cx="19.9999" cy="20" rx="19.9999" ry="20" fill="#7D8FA9"/>
<svg xmlns="http://www.w3.org/2000/svg" width="10" height="14" viewBox="0 0 10 14" fill="none" x="15" y="13">
  <path d="M5.47145 13.0234C5.21087 13.2839 4.78891 13.2839 4.52866 13.0234L0.757416 9.25261C0.497081 8.99219 0.496836 8.57032 0.757416 8.3099C1.01791 8.04818 1.43987 8.04948 1.70021 8.3099L4.33334 10.9427V1.44792C4.33334 1.07943 4.63185 0.78125 5.00001 0.78125C5.36817 0.78125 5.66668 1.07943 5.66668 1.44792V10.9427L8.29981 8.3099C8.56039 8.04818 8.98235 8.04948 9.24269 8.3099C9.50302 8.57032 9.50326 8.99219 9.24269 9.25261L5.47145 13.0234Z" fill="white"/>
</svg>
</svg>