<svg xmlns="http://www.w3.org/2000/svg" width="60" height="60" viewBox="0 0 60 60" fill="none">
  <path d="M29.9999 59.9999C46.625 59.9999 59.9999 46.625 59.9999 29.9999C59.9999 13.3749 46.625 0 29.9999 0C13.3749 0 0 13.3749 0 29.9999C0 46.625 13.3749 59.9999 29.9999 59.9999Z" fill="#2775CA"/>
  <path d="M38.2499 34.7505C38.2499 30.3756 35.6249 28.8756 30.3749 28.2507C26.6249 27.7506 25.8749 26.7507 25.8749 25.0005C25.8749 23.2503 27.125 22.1256 29.6249 22.1256C31.8749 22.1256 33.125 22.8756 33.7499 24.7506C33.875 25.1256 34.25 25.3755 34.625 25.3755H36.6248C37.1249 25.3755 37.4999 25.0005 37.4999 24.5007V24.3756C36.9998 21.6255 34.7498 19.5006 31.8749 19.2507V16.2507C31.8749 15.7506 31.4999 15.3756 30.875 15.2505H29C28.4999 15.2505 28.1249 15.6255 27.9998 16.2507V19.1256C24.2498 19.6257 21.875 22.1256 21.875 25.2507C21.875 29.3757 24.3749 31.0005 29.6249 31.6257C33.125 32.2506 34.25 33.0006 34.25 35.0007C34.25 37.0007 32.4998 38.3756 30.125 38.3756C26.8748 38.3756 25.7498 37.0004 25.3748 35.1255C25.25 34.6257 24.875 34.3755 24.5 34.3755H22.3748C21.875 34.3755 21.5 34.7505 21.5 35.2506V35.3757C21.9998 38.5004 23.9999 40.7504 28.1249 41.3756V44.3756C28.1249 44.8754 28.4999 45.2504 29.1248 45.3755H30.9998C31.4999 45.3755 31.8749 45.0005 32 44.3756V41.3756C35.75 40.7504 38.2499 38.1254 38.2499 34.7505Z" fill="white"/>
  <path d="M23.6235 47.8742C13.8735 44.3744 8.87343 33.4995 12.4986 23.8743C14.3736 18.6243 18.4986 14.6244 23.6235 12.7494C24.1236 12.4995 24.3735 12.1245 24.3735 11.4993V9.74941C24.3735 9.24931 24.1236 8.87431 23.6235 8.74951C23.4984 8.74951 23.2485 8.74951 23.1234 8.87431C11.2485 12.6243 4.74844 25.2495 8.49843 37.1244C10.7484 44.1242 16.1235 49.4993 23.1234 51.7493C23.6235 51.9992 24.1236 51.7493 24.2484 51.2492C24.3735 51.1244 24.3735 50.9993 24.3735 50.7494V48.9992C24.3735 48.6242 23.9985 48.1244 23.6235 47.8742ZM36.8736 8.87431C36.3735 8.62441 35.8734 8.87431 35.7486 9.37441C35.6235 9.49951 35.6235 9.62431 35.6235 9.87451V11.6244C35.6235 12.1245 35.9985 12.6243 36.3735 12.8745C46.1235 16.3743 51.1236 27.2493 47.4984 36.8745C45.6234 42.1245 41.4984 46.1243 36.3735 47.9993C35.8734 48.2492 35.6235 48.6242 35.6235 49.2494V50.9993C35.6235 51.4994 35.8734 51.8744 36.3735 51.9992C36.4986 51.9992 36.7485 51.9992 36.8736 51.8744C48.7485 48.1244 55.2485 35.4993 51.4986 23.6244C49.2486 16.4994 43.7484 11.1243 36.8736 8.87431Z" fill="white"/>
</svg>