<svg xmlns="http://www.w3.org/2000/svg" width="34" height="20" viewBox="0 0 34 20" fill="none">
  <path d="M0.335435 10.366C0.350728 10.1311 0.448739 9.89958 0.628774 9.71954L2.05238 8.29594C2.44581 7.9025 3.08254 7.9025 3.47598 8.29594L9.88218 14.7021L16.2884 8.29594C16.4038 8.18055 16.54 8.09992 16.6846 8.05265C17.0342 7.93656 17.4339 8.01789 17.712 8.29594L24.1182 14.7021L30.5244 8.29594C30.76 8.0603 31.0833 7.96506 31.3891 8.01233C31.5942 8.04361 31.7909 8.13884 31.948 8.29594L33.3716 9.71954C33.765 10.113 33.765 10.7497 33.3716 11.1431L24.83 19.6847C24.4366 20.0782 23.7998 20.0782 23.4064 19.6847L17.0002 13.2785L10.594 19.6847C10.2005 20.0782 9.56381 20.0782 9.17038 19.6847L0.628774 11.1431C0.416069 10.9304 0.317362 10.6454 0.335435 10.366Z" fill="#5797FF"/>
  <path d="M6.32318 5.44874C5.92974 5.0553 5.92835 4.4144 6.34542 4.04738C12.4214 -1.3224 21.5803 -1.3224 27.6556 4.04669C28.0713 4.4151 28.0706 5.0553 27.6772 5.44874L26.2536 6.87234C25.8601 7.26578 25.2248 7.26161 24.8008 6.90154C20.3089 3.09368 13.6907 3.09438 9.19957 6.90154C8.77555 7.26161 8.14021 7.26578 7.74678 6.87234L6.32318 5.44874Z" fill="#5797FF"/>
</svg>